<svg width="25" height="29" viewBox="0 0 25 29" fill="none" xmlns="http://www.w3.org/2000/svg">
<path d="M20.5534 15.2192C20.5192 11.7624 23.6676 10.0807 23.8116 10.0024C22.0285 7.63958 19.2648 7.31675 18.2936 7.29101C15.9723 7.06899 13.7208 8.55339 12.5383 8.55339C11.3323 8.55339 9.51141 7.31246 7.54894 7.34892C5.02358 7.38432 2.66106 8.71319 1.36534 10.7768C-1.30872 14.9843 0.685611 21.1675 3.24756 24.5686C4.52912 26.2342 6.02664 28.094 7.98675 28.0286C9.90438 27.9567 10.6207 26.9174 12.9348 26.9174C15.2277 26.9174 15.9004 28.0286 17.8994 27.9867C19.9575 27.9567 21.2532 26.3136 22.4899 24.6329C23.9709 22.7238 24.5657 20.8436 24.5893 20.7471C24.5409 20.7321 20.5923 19.3624 20.5534 15.2192Z" fill="white"/>
<path d="M16.7772 5.05365C17.8085 3.88136 18.5142 2.28649 18.3183 0.66803C16.8255 0.728092 14.9587 1.6065 13.8836 2.75305C12.9325 3.76338 12.0828 5.41938 12.3023 6.97671C13.9792 7.0904 15.7009 6.2077 16.7772 5.05365Z" fill="white"/>
</svg>
