<?xml version="1.0" ?><svg viewBox="0 0 479.93 512" xmlns="http://www.w3.org/2000/svg"><defs><style>.cls-1{fill:#2299f8;}.cls-1,.cls-2,.cls-3,.cls-4{stroke:#000;stroke-linecap:round;stroke-linejoin:round;stroke-width:20px;}.cls-2{fill:#ffc107;}.cls-3{fill:#5acf5f;}.cls-4{fill:#f84437;}</style></defs><g data-name="Layer 2" id="Layer_2"><g data-name="play store" id="play_store"><path class="cls-1" d="M264.8,246.2l-237.33,238A56.49,56.49,0,0,1,10,442.66V69.42A57.27,57.27,0,0,1,28.09,27.3Z"/><path class="cls-2" d="M469.93,256c0,21.52-11.66,40.58-31,51.35L371.51,344.9,287.8,267.41l-23-21.21,88.61-88.85L439,204.69c19.31,10.77,31,29.83,31,51.35Z"/><path class="cls-3" d="M264.8,246.2,28.09,27.3a61.18,61.18,0,0,1,11-8.3c19.32-11.68,42.62-12,62.55-.92L353.41,157.35Z"/><path class="cls-4" d="M371.51,344.9,101.68,494A61,61,0,0,1,71,502a59.68,59.68,0,0,1-31.88-8.91,55.94,55.94,0,0,1-11.66-8.92l237.33-238,23,21.21Z"/></g></g></svg>